<svg xmlns="http://www.w3.org/2000/svg" viewBox="0 0 200 300" width="200" height="300">
  <path d="M100 300 L100 200 C100 150 150 120 180 80 C160 100 130 110 100 100 C70 110 40 100 20 80 C50 120 100 150 100 200" fill="#2E8B57" opacity="0.6"/>
  <path d="M100 300 L100 210 C100 160 140 140 170 100 C150 120 120 130 100 120 C80 130 50 120 30 100 C60 140 100 160 100 210" fill="#3CA55C" opacity="0.4"/>
  <path d="M100 300 L100 220 C100 180 130 160 160 130 C145 145 120 150 100 145 C80 150 55 145 40 130 C70 160 100 180 100 220" fill="#4CAF50" opacity="0.3"/>
</svg>
